<mxfile host="app.diagrams.net" modified="2022-01-07T07:22:31.322Z" agent="5.0 (Windows NT 10.0; Win64; x64) AppleWebKit/537.36 (KHTML, like Gecko) Chrome/96.0.4664.110 Safari/537.36" etag="ecU9AXM_T21oPVH003Ot" version="16.2.1" type="github">
  <diagram id="C5RBs43oDa-KdzZeNtuy" name="Page-1">
    <mxGraphModel dx="468" dy="218" grid="1" gridSize="10" guides="1" tooltips="1" connect="1" arrows="1" fold="1" page="1" pageScale="1" pageWidth="827" pageHeight="1169" math="0" shadow="0">
      <root>
        <mxCell id="WIyWlLk6GJQsqaUBKTNV-0" />
        <mxCell id="WIyWlLk6GJQsqaUBKTNV-1" parent="WIyWlLk6GJQsqaUBKTNV-0" />
        <mxCell id="AM0SdwYOTyPvNuPhtiUI-0" value="后端" style="whiteSpace=wrap;html=1;fontFamily=Tahoma;" vertex="1" parent="WIyWlLk6GJQsqaUBKTNV-1">
          <mxGeometry x="190" y="200" width="80" height="70" as="geometry" />
        </mxCell>
        <mxCell id="AM0SdwYOTyPvNuPhtiUI-1" value="小程序端" style="rounded=0;whiteSpace=wrap;html=1;fontFamily=Tahoma;" vertex="1" parent="WIyWlLk6GJQsqaUBKTNV-1">
          <mxGeometry x="500" y="200" width="80" height="140" as="geometry" />
        </mxCell>
        <mxCell id="AM0SdwYOTyPvNuPhtiUI-2" value="nginx服务器" style="rounded=0;whiteSpace=wrap;html=1;fontFamily=Tahoma;" vertex="1" parent="WIyWlLk6GJQsqaUBKTNV-1">
          <mxGeometry x="310" y="200" width="80" height="140" as="geometry" />
        </mxCell>
        <mxCell id="AM0SdwYOTyPvNuPhtiUI-3" value="mysql数据库" style="whiteSpace=wrap;html=1;fontFamily=Tahoma;" vertex="1" parent="WIyWlLk6GJQsqaUBKTNV-1">
          <mxGeometry x="190" y="300" width="80" height="40" as="geometry" />
        </mxCell>
        <mxCell id="AM0SdwYOTyPvNuPhtiUI-4" value="" style="shape=flexArrow;endArrow=classic;startArrow=classic;html=1;rounded=0;fontFamily=Tahoma;entryX=0;entryY=0.5;entryDx=0;entryDy=0;exitX=1;exitY=0.5;exitDx=0;exitDy=0;" edge="1" parent="WIyWlLk6GJQsqaUBKTNV-1" source="AM0SdwYOTyPvNuPhtiUI-2" target="AM0SdwYOTyPvNuPhtiUI-1">
          <mxGeometry width="100" height="100" relative="1" as="geometry">
            <mxPoint x="390" y="370" as="sourcePoint" />
            <mxPoint x="490" y="270" as="targetPoint" />
          </mxGeometry>
        </mxCell>
        <mxCell id="AM0SdwYOTyPvNuPhtiUI-6" value="" style="endArrow=classic;startArrow=classic;html=1;rounded=0;fontFamily=Tahoma;entryX=0;entryY=0.25;entryDx=0;entryDy=0;exitX=1;exitY=0.5;exitDx=0;exitDy=0;" edge="1" parent="WIyWlLk6GJQsqaUBKTNV-1" source="AM0SdwYOTyPvNuPhtiUI-0" target="AM0SdwYOTyPvNuPhtiUI-2">
          <mxGeometry width="50" height="50" relative="1" as="geometry">
            <mxPoint x="370" y="310" as="sourcePoint" />
            <mxPoint x="420" y="260" as="targetPoint" />
          </mxGeometry>
        </mxCell>
        <mxCell id="AM0SdwYOTyPvNuPhtiUI-7" value="" style="endArrow=classic;startArrow=classic;html=1;rounded=0;fontFamily=Tahoma;entryX=0.5;entryY=1;entryDx=0;entryDy=0;exitX=0.5;exitY=0;exitDx=0;exitDy=0;" edge="1" parent="WIyWlLk6GJQsqaUBKTNV-1" source="AM0SdwYOTyPvNuPhtiUI-3" target="AM0SdwYOTyPvNuPhtiUI-0">
          <mxGeometry width="50" height="50" relative="1" as="geometry">
            <mxPoint x="370" y="310" as="sourcePoint" />
            <mxPoint x="420" y="260" as="targetPoint" />
          </mxGeometry>
        </mxCell>
      </root>
    </mxGraphModel>
  </diagram>
</mxfile>
